<mxfile host="app.diagrams.net" modified="2023-02-07T06:51:05.152Z" agent="5.0 (Windows NT 10.0; Win64; x64) AppleWebKit/537.36 (KHTML, like Gecko) Chrome/109.0.0.0 Safari/537.36" etag="Mt41S0K4mWWRw_Xp0TWO" version="20.8.17" type="github" pages="3">
  <diagram name="페이지-1" id="fRYrVUFLPQ2g4cdsS208">
    <mxGraphModel dx="2327" dy="690" grid="1" gridSize="10" guides="1" tooltips="1" connect="1" arrows="1" fold="1" page="1" pageScale="1" pageWidth="827" pageHeight="1169" math="0" shadow="0">
      <root>
        <mxCell id="0" />
        <mxCell id="1" parent="0" />
        <mxCell id="AtIlG1Xfn3aAckfV6wtV-1" value="" style="edgeStyle=orthogonalEdgeStyle;rounded=0;orthogonalLoop=1;jettySize=auto;html=1;" parent="1" source="JHo-xcAzpgrgP9Sst7or-1" target="JHo-xcAzpgrgP9Sst7or-2" edge="1">
          <mxGeometry relative="1" as="geometry" />
        </mxCell>
        <mxCell id="JHo-xcAzpgrgP9Sst7or-1" value="DB" style="shape=cylinder3;whiteSpace=wrap;html=1;boundedLbl=1;backgroundOutline=1;size=15;" parent="1" vertex="1">
          <mxGeometry x="786" y="320" width="140" height="80" as="geometry" />
        </mxCell>
        <mxCell id="JHo-xcAzpgrgP9Sst7or-16" value="" style="edgeStyle=orthogonalEdgeStyle;rounded=0;orthogonalLoop=1;jettySize=auto;html=1;" parent="1" source="JHo-xcAzpgrgP9Sst7or-2" target="JHo-xcAzpgrgP9Sst7or-1" edge="1">
          <mxGeometry relative="1" as="geometry" />
        </mxCell>
        <mxCell id="JHo-xcAzpgrgP9Sst7or-2" value="DAO" style="whiteSpace=wrap;html=1;aspect=fixed;" parent="1" vertex="1">
          <mxGeometry x="666" y="320" width="80" height="80" as="geometry" />
        </mxCell>
        <mxCell id="JHo-xcAzpgrgP9Sst7or-13" value="" style="edgeStyle=orthogonalEdgeStyle;rounded=0;orthogonalLoop=1;jettySize=auto;html=1;" parent="1" source="JHo-xcAzpgrgP9Sst7or-4" target="JHo-xcAzpgrgP9Sst7or-2" edge="1">
          <mxGeometry relative="1" as="geometry" />
        </mxCell>
        <mxCell id="JHo-xcAzpgrgP9Sst7or-4" value="SERVICE" style="whiteSpace=wrap;html=1;aspect=fixed;" parent="1" vertex="1">
          <mxGeometry x="530" y="320" width="80" height="80" as="geometry" />
        </mxCell>
        <mxCell id="JHo-xcAzpgrgP9Sst7or-12" value="" style="edgeStyle=orthogonalEdgeStyle;rounded=0;orthogonalLoop=1;jettySize=auto;html=1;" parent="1" source="JHo-xcAzpgrgP9Sst7or-5" target="JHo-xcAzpgrgP9Sst7or-4" edge="1">
          <mxGeometry relative="1" as="geometry" />
        </mxCell>
        <mxCell id="JHo-xcAzpgrgP9Sst7or-5" value="CONTROLLER" style="whiteSpace=wrap;html=1;aspect=fixed;" parent="1" vertex="1">
          <mxGeometry x="370" y="320" width="80" height="80" as="geometry" />
        </mxCell>
        <mxCell id="JHo-xcAzpgrgP9Sst7or-6" value="JSP" style="whiteSpace=wrap;html=1;aspect=fixed;" parent="1" vertex="1">
          <mxGeometry x="60" y="520" width="80" height="80" as="geometry" />
        </mxCell>
        <mxCell id="JHo-xcAzpgrgP9Sst7or-11" value="" style="edgeStyle=orthogonalEdgeStyle;rounded=0;orthogonalLoop=1;jettySize=auto;html=1;" parent="1" source="JHo-xcAzpgrgP9Sst7or-7" target="JHo-xcAzpgrgP9Sst7or-5" edge="1">
          <mxGeometry relative="1" as="geometry" />
        </mxCell>
        <mxCell id="JHo-xcAzpgrgP9Sst7or-7" value="DS" style="whiteSpace=wrap;html=1;aspect=fixed;" parent="1" vertex="1">
          <mxGeometry x="120" y="320" width="80" height="80" as="geometry" />
        </mxCell>
        <mxCell id="JHo-xcAzpgrgP9Sst7or-8" value="Interner Resourse View Resolver" style="whiteSpace=wrap;html=1;aspect=fixed;" parent="1" vertex="1">
          <mxGeometry x="360" y="560" width="80" height="80" as="geometry" />
        </mxCell>
        <mxCell id="JHo-xcAzpgrgP9Sst7or-17" value="" style="endArrow=classic;html=1;rounded=0;entryX=1;entryY=0.75;entryDx=0;entryDy=0;exitX=-0.003;exitY=0.752;exitDx=0;exitDy=0;exitPerimeter=0;" parent="1" source="JHo-xcAzpgrgP9Sst7or-1" target="JHo-xcAzpgrgP9Sst7or-2" edge="1">
          <mxGeometry relative="1" as="geometry">
            <mxPoint x="786" y="373" as="sourcePoint" />
            <mxPoint x="396" y="590" as="targetPoint" />
          </mxGeometry>
        </mxCell>
        <mxCell id="JHo-xcAzpgrgP9Sst7or-18" value="" style="shape=message;html=1;outlineConnect=0;" parent="JHo-xcAzpgrgP9Sst7or-17" vertex="1">
          <mxGeometry width="20" height="14" relative="1" as="geometry">
            <mxPoint x="-10" y="-7" as="offset" />
          </mxGeometry>
        </mxCell>
        <mxCell id="JHo-xcAzpgrgP9Sst7or-19" value="" style="endArrow=classic;html=1;rounded=0;entryX=1;entryY=0.75;entryDx=0;entryDy=0;exitX=0;exitY=0.75;exitDx=0;exitDy=0;" parent="1" source="JHo-xcAzpgrgP9Sst7or-2" target="JHo-xcAzpgrgP9Sst7or-4" edge="1">
          <mxGeometry relative="1" as="geometry">
            <mxPoint x="536" y="420" as="sourcePoint" />
            <mxPoint x="636" y="420" as="targetPoint" />
          </mxGeometry>
        </mxCell>
        <mxCell id="JHo-xcAzpgrgP9Sst7or-20" value="" style="shape=message;html=1;outlineConnect=0;" parent="JHo-xcAzpgrgP9Sst7or-19" vertex="1">
          <mxGeometry width="20" height="14" relative="1" as="geometry">
            <mxPoint x="-10" y="-7" as="offset" />
          </mxGeometry>
        </mxCell>
        <mxCell id="JHo-xcAzpgrgP9Sst7or-21" value="" style="endArrow=classic;html=1;rounded=0;exitX=0;exitY=0.75;exitDx=0;exitDy=0;entryX=1;entryY=0.75;entryDx=0;entryDy=0;" parent="1" source="JHo-xcAzpgrgP9Sst7or-4" target="JHo-xcAzpgrgP9Sst7or-5" edge="1">
          <mxGeometry relative="1" as="geometry">
            <mxPoint x="420" y="420" as="sourcePoint" />
            <mxPoint x="520" y="420" as="targetPoint" />
          </mxGeometry>
        </mxCell>
        <mxCell id="JHo-xcAzpgrgP9Sst7or-22" value="" style="shape=message;html=1;outlineConnect=0;" parent="JHo-xcAzpgrgP9Sst7or-21" vertex="1">
          <mxGeometry width="20" height="14" relative="1" as="geometry">
            <mxPoint x="-10" y="-7" as="offset" />
          </mxGeometry>
        </mxCell>
        <mxCell id="JHo-xcAzpgrgP9Sst7or-23" value="" style="endArrow=classic;html=1;rounded=0;exitX=0;exitY=0.75;exitDx=0;exitDy=0;entryX=0.875;entryY=0.75;entryDx=0;entryDy=0;entryPerimeter=0;" parent="1" source="JHo-xcAzpgrgP9Sst7or-5" target="JHo-xcAzpgrgP9Sst7or-7" edge="1">
          <mxGeometry relative="1" as="geometry">
            <mxPoint x="420" y="420" as="sourcePoint" />
            <mxPoint x="520" y="420" as="targetPoint" />
          </mxGeometry>
        </mxCell>
        <mxCell id="JHo-xcAzpgrgP9Sst7or-24" value="" style="shape=message;html=1;outlineConnect=0;" parent="JHo-xcAzpgrgP9Sst7or-23" vertex="1">
          <mxGeometry width="20" height="14" relative="1" as="geometry">
            <mxPoint x="-10" y="-7" as="offset" />
          </mxGeometry>
        </mxCell>
        <mxCell id="JHo-xcAzpgrgP9Sst7or-25" value="ModelAndView" style="text;html=1;strokeColor=none;fillColor=none;align=center;verticalAlign=middle;whiteSpace=wrap;rounded=0;" parent="1" vertex="1">
          <mxGeometry x="255" y="375" width="60" height="30" as="geometry" />
        </mxCell>
        <mxCell id="JHo-xcAzpgrgP9Sst7or-26" style="edgeStyle=orthogonalEdgeStyle;rounded=0;orthogonalLoop=1;jettySize=auto;html=1;exitX=0.5;exitY=1;exitDx=0;exitDy=0;" parent="1" source="JHo-xcAzpgrgP9Sst7or-25" target="JHo-xcAzpgrgP9Sst7or-25" edge="1">
          <mxGeometry relative="1" as="geometry" />
        </mxCell>
        <mxCell id="JHo-xcAzpgrgP9Sst7or-28" value="" style="endArrow=classic;html=1;rounded=0;entryX=1;entryY=0;entryDx=0;entryDy=0;exitX=1;exitY=1;exitDx=0;exitDy=0;startArrow=none;" parent="1" source="JHo-xcAzpgrgP9Sst7or-30" target="JHo-xcAzpgrgP9Sst7or-8" edge="1">
          <mxGeometry relative="1" as="geometry">
            <mxPoint x="180" y="440" as="sourcePoint" />
            <mxPoint x="430" y="530" as="targetPoint" />
          </mxGeometry>
        </mxCell>
        <mxCell id="JHo-xcAzpgrgP9Sst7or-33" value="" style="endArrow=classic;html=1;rounded=0;entryX=0.5;entryY=1;entryDx=0;entryDy=0;startArrow=none;" parent="1" source="JHo-xcAzpgrgP9Sst7or-31" target="JHo-xcAzpgrgP9Sst7or-7" edge="1">
          <mxGeometry width="50" height="50" relative="1" as="geometry">
            <mxPoint x="350" y="550" as="sourcePoint" />
            <mxPoint x="400" y="500" as="targetPoint" />
          </mxGeometry>
        </mxCell>
        <mxCell id="JHo-xcAzpgrgP9Sst7or-34" value="" style="endArrow=classic;html=1;rounded=0;entryX=0.5;entryY=0;entryDx=0;entryDy=0;exitX=0.257;exitY=1.013;exitDx=0;exitDy=0;startArrow=none;exitPerimeter=0;" parent="1" source="JHo-xcAzpgrgP9Sst7or-35" target="JHo-xcAzpgrgP9Sst7or-6" edge="1">
          <mxGeometry width="50" height="50" relative="1" as="geometry">
            <mxPoint x="350" y="550" as="sourcePoint" />
            <mxPoint x="400" y="500" as="targetPoint" />
          </mxGeometry>
        </mxCell>
        <mxCell id="JHo-xcAzpgrgP9Sst7or-38" value="" style="endArrow=none;html=1;rounded=0;entryX=0.5;entryY=0;entryDx=0;entryDy=0;exitX=0.25;exitY=1;exitDx=0;exitDy=0;" parent="1" source="JHo-xcAzpgrgP9Sst7or-7" target="JHo-xcAzpgrgP9Sst7or-35" edge="1">
          <mxGeometry width="50" height="50" relative="1" as="geometry">
            <mxPoint x="120" y="400" as="sourcePoint" />
            <mxPoint x="100" y="520" as="targetPoint" />
          </mxGeometry>
        </mxCell>
        <mxCell id="JHo-xcAzpgrgP9Sst7or-35" value="Model" style="text;html=1;align=center;verticalAlign=middle;resizable=0;points=[];autosize=1;strokeColor=none;fillColor=none;" parent="1" vertex="1">
          <mxGeometry x="100" y="460" width="60" height="30" as="geometry" />
        </mxCell>
        <mxCell id="JHo-xcAzpgrgP9Sst7or-39" value="" style="endArrow=classic;html=1;rounded=0;exitX=0;exitY=0;exitDx=0;exitDy=0;entryX=0;entryY=1;entryDx=0;entryDy=0;" parent="1" source="JHo-xcAzpgrgP9Sst7or-6" target="JHo-xcAzpgrgP9Sst7or-7" edge="1">
          <mxGeometry width="50" height="50" relative="1" as="geometry">
            <mxPoint x="350" y="550" as="sourcePoint" />
            <mxPoint x="400" y="500" as="targetPoint" />
          </mxGeometry>
        </mxCell>
        <mxCell id="JHo-xcAzpgrgP9Sst7or-40" value="" style="endArrow=none;html=1;rounded=0;entryX=0.25;entryY=0;entryDx=0;entryDy=0;exitX=1;exitY=1;exitDx=0;exitDy=0;" parent="1" source="JHo-xcAzpgrgP9Sst7or-7" target="JHo-xcAzpgrgP9Sst7or-30" edge="1">
          <mxGeometry relative="1" as="geometry">
            <mxPoint x="200" y="400" as="sourcePoint" />
            <mxPoint x="249.99999999999977" y="520" as="targetPoint" />
          </mxGeometry>
        </mxCell>
        <mxCell id="JHo-xcAzpgrgP9Sst7or-30" value="View" style="text;html=1;strokeColor=none;fillColor=none;align=center;verticalAlign=middle;whiteSpace=wrap;rounded=0;" parent="1" vertex="1">
          <mxGeometry x="320" y="490" width="60" height="30" as="geometry" />
        </mxCell>
        <mxCell id="JHo-xcAzpgrgP9Sst7or-41" value="" style="endArrow=none;html=1;rounded=0;exitX=0;exitY=0.5;exitDx=0;exitDy=0;entryX=0.5;entryY=1;entryDx=0;entryDy=0;" parent="1" source="JHo-xcAzpgrgP9Sst7or-8" target="JHo-xcAzpgrgP9Sst7or-31" edge="1">
          <mxGeometry width="50" height="50" relative="1" as="geometry">
            <mxPoint x="249.99999999999977" y="560" as="sourcePoint" />
            <mxPoint x="160" y="400" as="targetPoint" />
          </mxGeometry>
        </mxCell>
        <mxCell id="JHo-xcAzpgrgP9Sst7or-31" value="prefix+viewname+suffix" style="text;html=1;align=center;verticalAlign=middle;resizable=0;points=[];autosize=1;strokeColor=none;fillColor=none;" parent="1" vertex="1">
          <mxGeometry x="210" y="520" width="150" height="30" as="geometry" />
        </mxCell>
        <mxCell id="JHo-xcAzpgrgP9Sst7or-42" value="" style="endArrow=classic;html=1;rounded=0;exitX=0;exitY=0.75;exitDx=0;exitDy=0;" parent="1" source="JHo-xcAzpgrgP9Sst7or-7" edge="1">
          <mxGeometry width="50" height="50" relative="1" as="geometry">
            <mxPoint x="350" y="550" as="sourcePoint" />
            <mxPoint x="-210" y="380" as="targetPoint" />
          </mxGeometry>
        </mxCell>
        <mxCell id="JHo-xcAzpgrgP9Sst7or-43" value="" style="endArrow=classic;html=1;rounded=0;entryX=0;entryY=0.25;entryDx=0;entryDy=0;" parent="1" target="JHo-xcAzpgrgP9Sst7or-7" edge="1">
          <mxGeometry width="50" height="50" relative="1" as="geometry">
            <mxPoint x="-200" y="340" as="sourcePoint" />
            <mxPoint x="400" y="500" as="targetPoint" />
          </mxGeometry>
        </mxCell>
        <mxCell id="JHo-xcAzpgrgP9Sst7or-44" value="URL(ip:port), Method, Parameter,&amp;nbsp;&lt;span style=&quot;white-space: pre;&quot;&gt; &lt;/span&gt;" style="text;html=1;align=center;verticalAlign=middle;resizable=0;points=[];autosize=1;strokeColor=none;fillColor=none;" parent="1" vertex="1">
          <mxGeometry x="-150" y="265" width="210" height="30" as="geometry" />
        </mxCell>
        <mxCell id="JHo-xcAzpgrgP9Sst7or-45" value="request" style="ellipse;whiteSpace=wrap;html=1;aspect=fixed;" parent="1" vertex="1">
          <mxGeometry x="-40" y="295" width="80" height="80" as="geometry" />
        </mxCell>
        <mxCell id="JHo-xcAzpgrgP9Sst7or-46" value="response" style="ellipse;whiteSpace=wrap;html=1;aspect=fixed;" parent="1" vertex="1">
          <mxGeometry x="-140" y="295" width="80" height="80" as="geometry" />
        </mxCell>
        <mxCell id="JHo-xcAzpgrgP9Sst7or-47" value="controller에서&lt;br&gt;url과 method로 구분&lt;br&gt;parameter를 꺼냄" style="text;html=1;align=center;verticalAlign=middle;resizable=0;points=[];autosize=1;strokeColor=none;fillColor=none;" parent="1" vertex="1">
          <mxGeometry x="220" y="265" width="130" height="60" as="geometry" />
        </mxCell>
        <mxCell id="JHo-xcAzpgrgP9Sst7or-48" value="forwarding: view &amp;gt; jsp &amp;gt; 나감" style="text;html=1;align=center;verticalAlign=middle;resizable=0;points=[];autosize=1;strokeColor=none;fillColor=none;" parent="1" vertex="1">
          <mxGeometry x="-145" y="420" width="180" height="30" as="geometry" />
        </mxCell>
        <mxCell id="JHo-xcAzpgrgP9Sst7or-49" value="Redirect: DS만 들렷다 나감" style="text;html=1;align=center;verticalAlign=middle;resizable=0;points=[];autosize=1;strokeColor=none;fillColor=none;" parent="1" vertex="1">
          <mxGeometry x="-140" y="390" width="170" height="30" as="geometry" />
        </mxCell>
      </root>
    </mxGraphModel>
  </diagram>
  <diagram id="LYaDtLNnnstLo40MxHt2" name="페이지-2">
    <mxGraphModel dx="1313" dy="604" grid="1" gridSize="10" guides="1" tooltips="1" connect="1" arrows="1" fold="1" page="1" pageScale="1" pageWidth="827" pageHeight="1169" math="0" shadow="0">
      <root>
        <mxCell id="0" />
        <mxCell id="1" parent="0" />
        <mxCell id="7joz_ntR7rqHkD0U8AFz-1" value="ProductDAO" style="swimlane;fontStyle=1;align=center;verticalAlign=top;childLayout=stackLayout;horizontal=1;startSize=26;horizontalStack=0;resizeParent=1;resizeParentMax=0;resizeLast=0;collapsible=1;marginBottom=0;" parent="1" vertex="1">
          <mxGeometry x="990" y="180" width="280" height="160" as="geometry" />
        </mxCell>
        <mxCell id="7joz_ntR7rqHkD0U8AFz-2" value="- sqlSession: sqlSession&#xa;- NAMESPACE: String" style="text;strokeColor=none;fillColor=none;align=left;verticalAlign=top;spacingLeft=4;spacingRight=4;overflow=hidden;rotatable=0;points=[[0,0.5],[1,0.5]];portConstraint=eastwest;" parent="7joz_ntR7rqHkD0U8AFz-1" vertex="1">
          <mxGeometry y="26" width="280" height="54" as="geometry" />
        </mxCell>
        <mxCell id="7joz_ntR7rqHkD0U8AFz-3" value="" style="line;strokeWidth=1;fillColor=none;align=left;verticalAlign=middle;spacingTop=-1;spacingLeft=3;spacingRight=3;rotatable=0;labelPosition=right;points=[];portConstraint=eastwest;strokeColor=inherit;" parent="7joz_ntR7rqHkD0U8AFz-1" vertex="1">
          <mxGeometry y="80" width="280" height="8" as="geometry" />
        </mxCell>
        <mxCell id="7joz_ntR7rqHkD0U8AFz-4" value="+ getProductList(type):List&lt;ProductDTO&gt;&#xa;+ getProductDetail(ProductDTO) : ProductDTO&#xa;+ setProductAdd(ProductDTO): int" style="text;strokeColor=none;fillColor=none;align=left;verticalAlign=top;spacingLeft=4;spacingRight=4;overflow=hidden;rotatable=0;points=[[0,0.5],[1,0.5]];portConstraint=eastwest;" parent="7joz_ntR7rqHkD0U8AFz-1" vertex="1">
          <mxGeometry y="88" width="280" height="72" as="geometry" />
        </mxCell>
        <mxCell id="7joz_ntR7rqHkD0U8AFz-5" value="Product" style="text;html=1;align=center;verticalAlign=middle;resizable=0;points=[];autosize=1;strokeColor=none;fillColor=none;" parent="1" vertex="1">
          <mxGeometry x="120" y="140" width="60" height="30" as="geometry" />
        </mxCell>
        <mxCell id="7joz_ntR7rqHkD0U8AFz-6" value="Classname" style="swimlane;fontStyle=1;align=center;verticalAlign=top;childLayout=stackLayout;horizontal=1;startSize=26;horizontalStack=0;resizeParent=1;resizeParentMax=0;resizeLast=0;collapsible=1;marginBottom=0;" parent="1" vertex="1">
          <mxGeometry x="70" y="7" width="160" height="86" as="geometry" />
        </mxCell>
        <mxCell id="7joz_ntR7rqHkD0U8AFz-7" value="+ field: type" style="text;strokeColor=none;fillColor=none;align=left;verticalAlign=top;spacingLeft=4;spacingRight=4;overflow=hidden;rotatable=0;points=[[0,0.5],[1,0.5]];portConstraint=eastwest;" parent="7joz_ntR7rqHkD0U8AFz-6" vertex="1">
          <mxGeometry y="26" width="160" height="26" as="geometry" />
        </mxCell>
        <mxCell id="7joz_ntR7rqHkD0U8AFz-8" value="" style="line;strokeWidth=1;fillColor=none;align=left;verticalAlign=middle;spacingTop=-1;spacingLeft=3;spacingRight=3;rotatable=0;labelPosition=right;points=[];portConstraint=eastwest;strokeColor=inherit;" parent="7joz_ntR7rqHkD0U8AFz-6" vertex="1">
          <mxGeometry y="52" width="160" height="8" as="geometry" />
        </mxCell>
        <mxCell id="7joz_ntR7rqHkD0U8AFz-9" value="+ method(매게): 리턴" style="text;strokeColor=none;fillColor=none;align=left;verticalAlign=top;spacingLeft=4;spacingRight=4;overflow=hidden;rotatable=0;points=[[0,0.5],[1,0.5]];portConstraint=eastwest;" parent="7joz_ntR7rqHkD0U8AFz-6" vertex="1">
          <mxGeometry y="60" width="160" height="26" as="geometry" />
        </mxCell>
        <mxCell id="7joz_ntR7rqHkD0U8AFz-10" value="ProductService" style="swimlane;fontStyle=1;align=center;verticalAlign=top;childLayout=stackLayout;horizontal=1;startSize=26;horizontalStack=0;resizeParent=1;resizeParentMax=0;resizeLast=0;collapsible=1;marginBottom=0;" parent="1" vertex="1">
          <mxGeometry x="570" y="180" width="390" height="140" as="geometry" />
        </mxCell>
        <mxCell id="7joz_ntR7rqHkD0U8AFz-11" value="- ProductDAO: ProductDAO" style="text;strokeColor=none;fillColor=none;align=left;verticalAlign=top;spacingLeft=4;spacingRight=4;overflow=hidden;rotatable=0;points=[[0,0.5],[1,0.5]];portConstraint=eastwest;" parent="7joz_ntR7rqHkD0U8AFz-10" vertex="1">
          <mxGeometry y="26" width="390" height="26" as="geometry" />
        </mxCell>
        <mxCell id="7joz_ntR7rqHkD0U8AFz-12" value="" style="line;strokeWidth=1;fillColor=none;align=left;verticalAlign=middle;spacingTop=-1;spacingLeft=3;spacingRight=3;rotatable=0;labelPosition=right;points=[];portConstraint=eastwest;strokeColor=inherit;" parent="7joz_ntR7rqHkD0U8AFz-10" vertex="1">
          <mxGeometry y="52" width="390" height="8" as="geometry" />
        </mxCell>
        <mxCell id="7joz_ntR7rqHkD0U8AFz-13" value="+ getProductList():List&lt;ProductDTO&gt;&#xa;+ getProductDetail(ProductDTO) : ProductDTO&#xa;+ setProductAdd(ProductDTO, List&lt;ProductOptionDTO&gt;): int" style="text;strokeColor=none;fillColor=none;align=left;verticalAlign=top;spacingLeft=4;spacingRight=4;overflow=hidden;rotatable=0;points=[[0,0.5],[1,0.5]];portConstraint=eastwest;" parent="7joz_ntR7rqHkD0U8AFz-10" vertex="1">
          <mxGeometry y="60" width="390" height="80" as="geometry" />
        </mxCell>
        <mxCell id="7joz_ntR7rqHkD0U8AFz-14" value="ProductController" style="swimlane;fontStyle=1;align=center;verticalAlign=top;childLayout=stackLayout;horizontal=1;startSize=26;horizontalStack=0;resizeParent=1;resizeParentMax=0;resizeLast=0;collapsible=1;marginBottom=0;" parent="1" vertex="1">
          <mxGeometry x="120" y="180" width="420" height="170" as="geometry" />
        </mxCell>
        <mxCell id="7joz_ntR7rqHkD0U8AFz-15" value="- ProductService: ProductService" style="text;strokeColor=none;fillColor=none;align=left;verticalAlign=top;spacingLeft=4;spacingRight=4;overflow=hidden;rotatable=0;points=[[0,0.5],[1,0.5]];portConstraint=eastwest;" parent="7joz_ntR7rqHkD0U8AFz-14" vertex="1">
          <mxGeometry y="26" width="420" height="26" as="geometry" />
        </mxCell>
        <mxCell id="7joz_ntR7rqHkD0U8AFz-16" value="" style="line;strokeWidth=1;fillColor=none;align=left;verticalAlign=middle;spacingTop=-1;spacingLeft=3;spacingRight=3;rotatable=0;labelPosition=right;points=[];portConstraint=eastwest;strokeColor=inherit;" parent="7joz_ntR7rqHkD0U8AFz-14" vertex="1">
          <mxGeometry y="52" width="420" height="8" as="geometry" />
        </mxCell>
        <mxCell id="7joz_ntR7rqHkD0U8AFz-17" value="+ getProductList(ModelAndView):ModelAndView&#xa;+ getProductDetail(ProductDTO) : ProductDTO&#xa;+ setProductAdd(ProductDTO): String&#xa;+ setProductAdd(ProductDTO): void" style="text;strokeColor=none;fillColor=none;align=left;verticalAlign=top;spacingLeft=4;spacingRight=4;overflow=hidden;rotatable=0;points=[[0,0.5],[1,0.5]];portConstraint=eastwest;" parent="7joz_ntR7rqHkD0U8AFz-14" vertex="1">
          <mxGeometry y="60" width="420" height="110" as="geometry" />
        </mxCell>
        <mxCell id="7joz_ntR7rqHkD0U8AFz-20" value="" style="edgeStyle=orthogonalEdgeStyle;rounded=0;orthogonalLoop=1;jettySize=auto;html=1;" parent="1" source="7joz_ntR7rqHkD0U8AFz-17" target="7joz_ntR7rqHkD0U8AFz-13" edge="1">
          <mxGeometry relative="1" as="geometry" />
        </mxCell>
        <mxCell id="7joz_ntR7rqHkD0U8AFz-21" value="" style="edgeStyle=orthogonalEdgeStyle;rounded=0;orthogonalLoop=1;jettySize=auto;html=1;" parent="1" source="7joz_ntR7rqHkD0U8AFz-13" target="7joz_ntR7rqHkD0U8AFz-4" edge="1">
          <mxGeometry relative="1" as="geometry" />
        </mxCell>
        <mxCell id="7joz_ntR7rqHkD0U8AFz-22" value="서비스는 DAO가 있어야 함. 의존적&lt;br&gt;바라봄" style="endArrow=block;endFill=1;html=1;edgeStyle=orthogonalEdgeStyle;align=left;verticalAlign=top;rounded=0;" parent="1" edge="1">
          <mxGeometry x="-1" relative="1" as="geometry">
            <mxPoint x="470" y="120" as="sourcePoint" />
            <mxPoint x="630" y="120" as="targetPoint" />
          </mxGeometry>
        </mxCell>
        <mxCell id="7joz_ntR7rqHkD0U8AFz-23" value="1" style="edgeLabel;resizable=0;html=1;align=left;verticalAlign=bottom;" parent="7joz_ntR7rqHkD0U8AFz-22" connectable="0" vertex="1">
          <mxGeometry x="-1" relative="1" as="geometry" />
        </mxCell>
      </root>
    </mxGraphModel>
  </diagram>
  <diagram id="8Q2dud4qiKMFRze7hxDt" name="페이지-3">
    <mxGraphModel dx="1050" dy="483" grid="1" gridSize="10" guides="1" tooltips="1" connect="1" arrows="1" fold="1" page="1" pageScale="1" pageWidth="827" pageHeight="1169" math="0" shadow="0">
      <root>
        <mxCell id="0" />
        <mxCell id="1" parent="0" />
        <mxCell id="qbC15eFJMz8x87LoI6fS-1" value="Member" style="text;html=1;align=center;verticalAlign=middle;resizable=0;points=[];autosize=1;strokeColor=none;fillColor=none;" parent="1" vertex="1">
          <mxGeometry x="60" y="20" width="70" height="30" as="geometry" />
        </mxCell>
        <mxCell id="qbC15eFJMz8x87LoI6fS-2" value="MemberController" style="swimlane;fontStyle=1;align=center;verticalAlign=top;childLayout=stackLayout;horizontal=1;startSize=26;horizontalStack=0;resizeParent=1;resizeParentMax=0;resizeLast=0;collapsible=1;marginBottom=0;" parent="1" vertex="1">
          <mxGeometry x="40" y="75" width="360" height="86" as="geometry" />
        </mxCell>
        <mxCell id="qbC15eFJMz8x87LoI6fS-3" value="- MemberService: MemberService" style="text;strokeColor=none;fillColor=none;align=left;verticalAlign=top;spacingLeft=4;spacingRight=4;overflow=hidden;rotatable=0;points=[[0,0.5],[1,0.5]];portConstraint=eastwest;" parent="qbC15eFJMz8x87LoI6fS-2" vertex="1">
          <mxGeometry y="26" width="360" height="26" as="geometry" />
        </mxCell>
        <mxCell id="qbC15eFJMz8x87LoI6fS-4" value="" style="line;strokeWidth=1;fillColor=none;align=left;verticalAlign=middle;spacingTop=-1;spacingLeft=3;spacingRight=3;rotatable=0;labelPosition=right;points=[];portConstraint=eastwest;strokeColor=inherit;" parent="qbC15eFJMz8x87LoI6fS-2" vertex="1">
          <mxGeometry y="52" width="360" height="8" as="geometry" />
        </mxCell>
        <mxCell id="qbC15eFJMz8x87LoI6fS-5" value="+ setMemberJoin(String): MemberDTO" style="text;strokeColor=none;fillColor=none;align=left;verticalAlign=top;spacingLeft=4;spacingRight=4;overflow=hidden;rotatable=0;points=[[0,0.5],[1,0.5]];portConstraint=eastwest;" parent="qbC15eFJMz8x87LoI6fS-2" vertex="1">
          <mxGeometry y="60" width="360" height="26" as="geometry" />
        </mxCell>
        <mxCell id="qbC15eFJMz8x87LoI6fS-6" value="MemberDAO" style="swimlane;fontStyle=1;align=center;verticalAlign=top;childLayout=stackLayout;horizontal=1;startSize=26;horizontalStack=0;resizeParent=1;resizeParentMax=0;resizeLast=0;collapsible=1;marginBottom=0;" parent="1" vertex="1">
          <mxGeometry x="890" y="75" width="280" height="120" as="geometry" />
        </mxCell>
        <mxCell id="qbC15eFJMz8x87LoI6fS-7" value="- sqlSession: sqlSession&#xa;- NAMESPACE: String" style="text;strokeColor=none;fillColor=none;align=left;verticalAlign=top;spacingLeft=4;spacingRight=4;overflow=hidden;rotatable=0;points=[[0,0.5],[1,0.5]];portConstraint=eastwest;" parent="qbC15eFJMz8x87LoI6fS-6" vertex="1">
          <mxGeometry y="26" width="280" height="44" as="geometry" />
        </mxCell>
        <mxCell id="qbC15eFJMz8x87LoI6fS-8" value="" style="line;strokeWidth=1;fillColor=none;align=left;verticalAlign=middle;spacingTop=-1;spacingLeft=3;spacingRight=3;rotatable=0;labelPosition=right;points=[];portConstraint=eastwest;strokeColor=inherit;" parent="qbC15eFJMz8x87LoI6fS-6" vertex="1">
          <mxGeometry y="70" width="280" height="8" as="geometry" />
        </mxCell>
        <mxCell id="qbC15eFJMz8x87LoI6fS-9" value="+ setMemberJoin(int): MemberDTO&#xa;+ getMemberDetail(MemberDTO): MemberDTO" style="text;strokeColor=none;fillColor=none;align=left;verticalAlign=top;spacingLeft=4;spacingRight=4;overflow=hidden;rotatable=0;points=[[0,0.5],[1,0.5]];portConstraint=eastwest;" parent="qbC15eFJMz8x87LoI6fS-6" vertex="1">
          <mxGeometry y="78" width="280" height="42" as="geometry" />
        </mxCell>
        <mxCell id="qbC15eFJMz8x87LoI6fS-10" value="MemberService" style="swimlane;fontStyle=1;align=center;verticalAlign=top;childLayout=stackLayout;horizontal=1;startSize=26;horizontalStack=0;resizeParent=1;resizeParentMax=0;resizeLast=0;collapsible=1;marginBottom=0;" parent="1" vertex="1">
          <mxGeometry x="470" y="75" width="390" height="140" as="geometry" />
        </mxCell>
        <mxCell id="qbC15eFJMz8x87LoI6fS-11" value="- MemberDAO: MemberDAO" style="text;strokeColor=none;fillColor=none;align=left;verticalAlign=top;spacingLeft=4;spacingRight=4;overflow=hidden;rotatable=0;points=[[0,0.5],[1,0.5]];portConstraint=eastwest;" parent="qbC15eFJMz8x87LoI6fS-10" vertex="1">
          <mxGeometry y="26" width="390" height="26" as="geometry" />
        </mxCell>
        <mxCell id="qbC15eFJMz8x87LoI6fS-12" value="" style="line;strokeWidth=1;fillColor=none;align=left;verticalAlign=middle;spacingTop=-1;spacingLeft=3;spacingRight=3;rotatable=0;labelPosition=right;points=[];portConstraint=eastwest;strokeColor=inherit;" parent="qbC15eFJMz8x87LoI6fS-10" vertex="1">
          <mxGeometry y="52" width="390" height="8" as="geometry" />
        </mxCell>
        <mxCell id="qbC15eFJMz8x87LoI6fS-13" value="+ method(type): type&#xa;+ setMemberJoin(int): MemberDTO" style="text;strokeColor=none;fillColor=none;align=left;verticalAlign=top;spacingLeft=4;spacingRight=4;overflow=hidden;rotatable=0;points=[[0,0.5],[1,0.5]];portConstraint=eastwest;" parent="qbC15eFJMz8x87LoI6fS-10" vertex="1">
          <mxGeometry y="60" width="390" height="80" as="geometry" />
        </mxCell>
        <mxCell id="qbC15eFJMz8x87LoI6fS-14" value="" style="edgeStyle=orthogonalEdgeStyle;rounded=0;orthogonalLoop=1;jettySize=auto;html=1;" parent="1" source="qbC15eFJMz8x87LoI6fS-3" target="qbC15eFJMz8x87LoI6fS-13" edge="1">
          <mxGeometry relative="1" as="geometry" />
        </mxCell>
        <mxCell id="qbC15eFJMz8x87LoI6fS-15" value="" style="edgeStyle=orthogonalEdgeStyle;rounded=0;orthogonalLoop=1;jettySize=auto;html=1;" parent="1" source="qbC15eFJMz8x87LoI6fS-13" target="qbC15eFJMz8x87LoI6fS-9" edge="1">
          <mxGeometry relative="1" as="geometry" />
        </mxCell>
      </root>
    </mxGraphModel>
  </diagram>
</mxfile>
